<?xml version="1.0" standalone="no"?>
<!DOCTYPE svg PUBLIC "-//W3C//DTD SVG 20010904//EN"
 "http://www.w3.org/TR/2001/REC-SVG-20010904/DTD/svg10.dtd">
<svg version="1.0" xmlns="http://www.w3.org/2000/svg"
 width="574.000000pt" height="556.000000pt" viewBox="0 0 574.000000 556.000000"
 preserveAspectRatio="xMidYMid meet">

<g transform="translate(0.000000,556.000000) scale(0.100000,-0.100000)"
fill="#000000" stroke="none">
<path d="M2785 5128 c-68 -30 -71 -31 -125 -17 -30 7 -84 13 -120 14 -61 0
-69 -3 -127 -44 l-62 -44 -84 6 c-113 8 -150 -4 -209 -64 -57 -59 -80 -69
-160 -69 -78 0 -123 -22 -162 -79 -50 -73 -71 -88 -150 -105 -86 -20 -124 -51
-164 -134 -28 -59 -51 -78 -135 -112 -71 -28 -97 -61 -125 -156 -23 -74 -34
-88 -109 -138 -66 -44 -82 -71 -97 -162 -17 -102 -18 -105 -78 -155 -63 -53
-78 -88 -78 -183 0 -87 -7 -108 -54 -171 -52 -68 -62 -114 -42 -205 18 -83 15
-103 -28 -186 -33 -66 -33 -117 -1 -194 29 -69 31 -112 9 -166 -11 -26 -15
-58 -12 -100 3 -51 10 -72 41 -118 40 -60 47 -99 33 -183 -11 -60 9 -116 60
-174 54 -61 64 -84 64 -152 0 -103 15 -130 128 -230 30 -27 45 -64 66 -159 9
-39 52 -86 105 -112 65 -33 95 -67 121 -135 27 -73 69 -115 142 -140 80 -27
104 -46 138 -107 38 -66 79 -101 128 -109 108 -19 137 -33 191 -95 43 -49 61
-62 105 -75 29 -9 66 -15 82 -13 72 5 93 -2 155 -52 74 -60 91 -65 172 -55
114 14 131 12 195 -28 84 -52 129 -56 231 -22 l81 28 73 -22 c113 -33 164 -29
257 21 l78 43 59 -13 c111 -23 150 -14 223 47 65 55 81 61 157 61 87 1 136 23
187 85 43 52 73 68 159 84 76 14 110 39 154 116 37 65 77 96 139 109 56 12
109 68 139 147 22 56 36 77 68 100 22 16 45 29 50 29 6 0 26 12 45 26 39 31
67 87 77 159 6 40 14 56 48 88 23 21 57 53 74 69 38 36 53 80 53 161 0 67 16
104 71 164 48 53 64 107 51 181 -10 57 6 143 28 157 6 4 19 24 30 45 26 51 26
121 0 196 -22 63 -21 83 11 148 11 23 23 64 26 91 4 44 1 58 -32 120 -40 74
-39 61 -20 220 7 54 -6 84 -70 176 -27 39 -30 50 -31 123 0 45 -1 92 -2 105
-1 14 -31 53 -73 96 -70 73 -71 73 -80 146 -12 100 -31 131 -114 187 -64 43
-72 52 -88 102 -41 130 -57 148 -158 189 -65 26 -85 45 -125 119 -33 63 -62
88 -118 103 -109 29 -125 39 -167 101 -48 70 -97 97 -174 98 -81 0 -124 17
-179 71 -61 59 -94 70 -207 66 -82 -2 -85 -1 -147 37 -75 47 -137 56 -208 32
-67 -22 -93 -20 -166 14 -83 39 -132 39 -223 -2z m277 -88 c930 -67 1698 -693
1923 -1569 40 -157 57 -285 62 -486 4 -160 2 -214 -16 -335 -67 -466 -260
-863 -575 -1189 -300 -310 -622 -497 -1030 -601 -154 -39 -383 -70 -514 -70
-89 0 -319 25 -415 45 -532 110 -995 404 -1321 840 -288 384 -448 942 -407
1419 21 256 62 436 148 651 220 550 678 985 1243 1178 302 103 584 140 902
117z"/>
<path d="M2675 4983 c-656 -83 -1171 -389 -1515 -897 -127 -189 -234 -439
-284 -666 -10 -41 -21 -93 -26 -115 -5 -22 -15 -109 -21 -193 -21 -245 6 -510
77 -755 197 -690 751 -1235 1456 -1431 445 -124 928 -91 1366 94 240 102 437
236 638 435 205 203 321 366 433 611 108 237 161 436 188 708 15 158 15 181 0
335 -29 288 -86 501 -197 726 -267 547 -751 936 -1353 1089 -189 48 -345 66
-555 65 -98 -1 -190 -4 -207 -6z m530 -89 c455 -66 853 -269 1166 -591 360
-371 549 -844 549 -1373 0 -218 -39 -444 -116 -669 -64 -184 -219 -453 -360
-622 -262 -315 -662 -566 -1043 -655 -334 -78 -606 -82 -901 -14 -254 59 -412
119 -586 221 -452 267 -761 645 -918 1125 -171 522 -131 1043 118 1544 172
346 486 655 855 840 371 186 814 256 1236 194z"/>
<path d="M4012 4358 c-79 -33 -142 -64 -140 -68 2 -5 59 -52 127 -105 89 -69
126 -93 131 -83 8 14 34 308 28 313 -2 2 -67 -24 -146 -57z"/>
<path d="M1712 4393 c-97 -53 -122 -115 -122 -303 0 -159 15 -214 71 -264 22
-20 51 -41 65 -46 14 -6 127 -10 252 -10 253 0 282 6 335 69 42 51 49 90 45
273 l-3 166 -30 43 c-16 23 -50 53 -74 66 -43 22 -53 23 -275 23 -201 0 -236
-2 -264 -17z m311 -143 c19 -23 37 -56 40 -75 7 -45 -15 -111 -54 -159 -31
-36 -32 -37 -51 -19 -31 28 -78 115 -78 145 0 15 5 39 11 55 12 33 67 93 85
93 7 0 28 -18 47 -40z m-191 -79 c14 -12 29 -39 37 -70 8 -32 27 -66 53 -96
l41 -47 -79 40 c-44 22 -85 47 -92 54 -20 24 -41 95 -35 117 7 27 42 28 75 2z
m358 -16 c0 -77 -53 -135 -154 -171 -43 -15 -43 -19 11 49 13 16 28 49 34 73
13 49 48 84 85 84 21 0 24 -5 24 -35z m-320 -175 c72 -36 74 -38 47 -45 -54
-14 -137 1 -175 33 -43 34 -49 49 -25 55 31 8 75 -4 153 -43z m370 40 c12 -7
11 -13 -9 -34 -47 -50 -109 -65 -204 -50 l-38 7 58 24 c82 35 156 62 168 62 6
1 17 -4 25 -9z m-185 -116 c22 -3 46 -10 54 -14 23 -12 -123 -23 -207 -15
l-77 7 55 17 c30 10 64 22 75 28 14 8 24 8 39 -2 12 -8 39 -17 61 -21z"/>
<path d="M3746 4247 c-16 -12 -13 -16 29 -46 l45 -33 -104 -106 c-239 -245
-509 -608 -697 -937 -66 -115 -229 -447 -229 -466 0 -6 -5 -9 -12 -7 -18 6
-29 58 -22 103 7 45 12 48 -69 -41 l-47 -51 26 -79 c14 -43 29 -83 33 -89 11
-13 -48 -140 -59 -129 -4 5 -30 63 -58 129 -69 164 -269 643 -382 912 -81 195
-97 225 -125 243 -30 19 -50 20 -324 20 l-291 0 0 -40 c0 -38 1 -40 33 -40 82
0 160 -47 196 -119 10 -20 50 -112 89 -206 177 -426 454 -1088 487 -1167 l37
-88 283 0 283 0 7 53 c41 336 149 597 274 661 31 16 144 20 135 4 -7 -10 38
-38 50 -31 6 3 8 3 4 -2 -11 -11 12 -36 26 -28 6 3 8 3 4 -2 -9 -10 10 -47 21
-40 5 2 8 -1 8 -8 -2 -17 70 -159 75 -150 3 4 3 3 2 -4 -4 -18 72 -184 81
-175 5 4 5 2 1 -5 -9 -16 14 -64 27 -56 6 3 7 1 3 -5 -8 -13 14 -63 25 -56 5
3 7 -1 4 -8 -7 -19 74 -160 87 -152 6 4 8 3 5 -3 -12 -20 86 -128 159 -175 66
-43 115 -60 154 -54 26 4 30 3 15 -4 -15 -6 -7 -9 33 -9 33 -1 51 3 47 9 -3 5
0 7 9 4 23 -9 84 14 146 55 68 45 172 149 163 163 -3 7 -1 8 5 4 11 -6 81 77
84 99 0 6 8 16 17 22 14 11 14 14 2 22 -11 7 -24 1 -50 -21 -19 -17 -52 -38
-73 -48 -21 -9 -36 -19 -34 -21 2 -2 -5 -5 -17 -5 -12 -1 -49 -4 -82 -7 -73
-6 -158 18 -220 62 -23 17 -46 27 -50 23 -5 -4 -5 -2 -2 4 4 6 -5 22 -19 35
-41 38 -87 106 -151 221 -33 60 -62 106 -65 103 -2 -3 -5 1 -5 9 0 21 -65 126
-75 120 -4 -3 -5 1 -2 9 5 15 -11 32 -31 32 -5 0 -10 6 -10 13 0 19 -56 73
-68 65 -6 -3 -7 -1 -3 5 3 6 -4 18 -16 26 -21 15 -14 16 103 16 211 0 346 48
454 161 67 70 100 138 115 237 22 139 -19 270 -112 363 -70 70 -164 114 -297
141 -130 25 -134 7 36 181 162 165 141 154 201 107 l50 -40 4 41 4 41 -161
124 c-88 68 -169 124 -181 124 -11 0 -28 -6 -38 -13z m142 -195 c-13 -13 -47
-50 -76 -81 -541 -567 -881 -1105 -1064 -1683 l-43 -138 -121 0 c-88 0 -123 3
-127 13 -72 180 -505 1216 -561 1339 -15 35 -22 60 -15 63 5 4 25 -26 43 -67
38 -82 316 -743 420 -998 37 -91 71 -174 76 -185 5 -11 20 -47 34 -80 l24 -60
102 0 101 0 54 161 c153 464 362 836 703 1252 220 269 438 503 459 495 11 -4
9 -11 -9 -31z m-176 -464 c87 -46 162 -132 188 -214 24 -78 25 -110 6 -182
-22 -83 -73 -159 -139 -208 -84 -63 -148 -83 -316 -100 -166 -16 -206 -24
-311 -58 -41 -13 -79 -22 -83 -19 -4 3 -5 26 -1 51 5 36 23 71 77 147 100 142
234 311 351 444 56 62 111 127 124 142 13 16 28 29 34 29 6 0 37 -14 70 -32z
m206 -75 c51 -31 124 -108 150 -158 38 -72 38 -177 -1 -257 -34 -70 -102 -133
-188 -174 -61 -29 -197 -70 -206 -61 -2 3 17 10 43 16 77 20 194 82 252 136
72 65 102 128 102 215 0 88 -24 135 -113 225 -40 41 -71 75 -69 75 1 0 15 -8
30 -17z m-475 -700 c-7 -2 -19 -2 -25 0 -7 3 -2 5 12 5 14 0 19 -2 13 -5z
m-65 -42 c12 -6 28 -9 34 -5 7 4 8 3 4 -4 -7 -11 7 -17 29 -12 6 1 7 -1 4 -4
-3 -4 15 -28 41 -54 26 -26 55 -59 65 -74 9 -15 22 -25 28 -21 5 3 7 1 4 -4
-4 -6 10 -40 31 -76 21 -36 51 -95 66 -131 17 -38 33 -63 39 -59 6 3 7 1 3 -5
-14 -23 86 -188 107 -175 6 4 7 1 2 -6 -9 -15 33 -63 48 -54 6 3 7 1 4 -4 -8
-13 14 -32 74 -67 97 -55 213 -71 314 -41 45 13 48 13 30 0 -11 -9 -36 -18
-57 -21 -21 -4 -36 -9 -34 -13 2 -3 -36 -6 -84 -6 -48 0 -83 3 -77 7 8 5 5 8
-7 8 -27 0 -115 47 -166 88 -24 21 -49 36 -55 34 -5 -2 -7 0 -3 4 11 10 -32
65 -44 58 -6 -4 -8 -2 -5 3 6 10 -52 119 -70 132 -5 3 -8 11 -8 16 0 23 -69
154 -78 148 -6 -3 -7 -1 -3 5 9 14 -14 63 -27 55 -6 -3 -7 -1 -3 6 14 22 -113
195 -141 192 -4 -1 -8 3 -8 9 0 15 -44 42 -57 34 -6 -4 -8 -3 -5 3 11 17 -40
33 -91 28 -38 -3 -41 -3 -17 4 l30 9 -30 0 c-16 1 -48 -5 -70 -13 -50 -18 -55
-18 -31 0 11 8 28 15 39 15 10 0 16 3 13 8 -7 12 136 -3 162 -17z"/>
<path d="M3418 1815 c-76 -67 -106 -113 -134 -203 -32 -107 -54 -151 -102
-204 l-37 -41 30 7 c90 22 229 140 271 231 19 40 24 66 23 130 -1 114 -5 122
-51 80z"/>
<path d="M2356 1824 c-3 -9 -6 -51 -6 -93 0 -103 34 -175 124 -259 63 -59 153
-112 189 -112 15 0 13 7 -16 43 -41 50 -68 102 -92 177 -34 106 -75 167 -155
230 -32 25 -39 27 -44 14z"/>
<path d="M1790 1779 c1 -62 17 -127 41 -161 l21 -29 -24 6 c-35 8 -223 -9
-223 -20 1 -15 124 -84 182 -101 46 -13 63 -13 165 0 62 9 139 17 170 18 l57
3 -116 89 c-63 50 -151 123 -194 164 l-79 74 0 -43z"/>
<path d="M2100 1713 c1 -118 101 -210 314 -287 l69 -24 -40 41 c-22 23 -65 74
-95 112 -31 39 -69 82 -84 97 -30 28 -142 98 -156 98 -4 0 -8 -17 -8 -37z"/>
<path d="M3645 1707 c-32 -17 -82 -57 -111 -87 -28 -30 -82 -88 -119 -127 -38
-40 -66 -73 -63 -73 3 0 37 9 74 21 160 49 238 103 275 187 19 43 26 112 12
112 -5 0 -35 -15 -68 -33z"/>
<path d="M3165 1656 c-105 -70 -176 -162 -230 -295 l-22 -54 -13 39 c-28 85
-74 160 -139 224 -57 56 -148 116 -159 105 -2 -2 6 -40 19 -85 30 -113 84
-191 172 -250 37 -25 61 -47 55 -49 -7 -2 -33 -16 -59 -32 -42 -27 -78 -75
-93 -126 -7 -20 -5 -21 23 -13 51 14 131 62 161 96 l28 32 37 -38 c56 -58 185
-120 185 -89 0 43 -66 122 -132 156 l-37 20 35 17 c47 22 140 111 170 161 19
33 63 176 64 208 0 13 -15 7 -65 -27z"/>
<path d="M3804 1596 c-16 -12 -58 -40 -94 -62 l-65 -39 115 -13 c214 -26 233
-24 346 33 l99 50 -105 6 c-110 7 -198 21 -241 37 -21 8 -31 6 -55 -12z"/>
<path d="M2025 1435 c-33 -7 -76 -19 -95 -27 l-35 -15 40 -20 c82 -43 153 -56
255 -50 113 7 294 38 283 48 -13 12 -174 58 -243 69 -83 13 -130 12 -205 -5z"/>
<path d="M3555 1435 c-66 -11 -218 -56 -212 -61 1 -2 72 -15 157 -30 191 -32
270 -30 363 13 l62 29 -26 17 c-34 23 -150 47 -219 46 -30 0 -87 -7 -125 -14z"/>
<path d="M2440 1320 c-81 -14 -229 -74 -244 -99 -14 -21 146 -62 245 -62 82 0
154 26 260 97 l74 49 -45 6 c-86 12 -245 17 -290 9z"/>
<path d="M3081 1313 l-34 -4 59 -40 c124 -84 170 -102 272 -107 76 -4 104 -1
162 18 38 12 77 28 87 35 15 11 12 15 -33 38 -107 54 -174 67 -333 65 -80 0
-161 -3 -180 -5z"/>
</g>
</svg>
